<svg width="21" height="19" viewBox="0 0 21 19" fill="none" xmlns="http://www.w3.org/2000/svg">
	<path fill-rule="evenodd" clip-rule="evenodd" d="M18.002 0C19.1065 0 20.002 0.895431 20.002 2V10C20.002 11.1046 19.1065 12 18.002 12H16.002V14C16.002 15.1046 15.1065 16 14.002 16H8.76108L4.4876 18.3742C4.17787 18.5462 3.8002 18.5416 3.49483 18.3619C3.18945 18.1822 3.00195 17.8543 3.00195 17.5V16H2.00195C0.897384 16 0.00195312 15.1046 0.00195312 14V6C0.00195312 4.89543 0.897385 4 2.00195 4H4.00195V2C4.00195 0.89543 4.89738 0 6.00195 0H18.002ZM6.00195 4H14.002C15.1065 4 16.002 4.89543 16.002 6V10H18.002V2L6.00195 2V4Z" fill="black"/>
</svg>
