<?xml version="1.0" encoding="utf-8"?>
<!-- Generator: Adobe Illustrator 27.4.0, SVG Export Plug-In . SVG Version: 6.00 Build 0)  -->
<svg version="1.1" id="Layer_1" xmlns="http://www.w3.org/2000/svg" xmlns:xlink="http://www.w3.org/1999/xlink" x="0px" y="0px"
	 viewBox="0 0 18 18" style="enable-background:new 0 0 18 18;" xml:space="preserve">
<style type="text/css">
	.st0{fill-rule:evenodd;clip-rule:evenodd;fill:#FFFFFF;}
</style>
<path class="st0" d="M0,3.5C0,1.6,1.6,0,3.5,0S7,1.6,7,3.5V5h4V3.5C11,1.6,12.6,0,14.5,0S18,1.6,18,3.5S16.4,7,14.5,7H13v4h1.5
	c1.9,0,3.5,1.6,3.5,3.5S16.4,18,14.5,18S11,16.4,11,14.5V13H7v1.5C7,16.4,5.4,18,3.5,18S0,16.4,0,14.5S1.6,11,3.5,11H5V7H3.5
	C1.6,7,0,5.4,0,3.5z M5,5V3.5C5,2.7,4.3,2,3.5,2S2,2.7,2,3.5S2.7,5,3.5,5H5z M7,7v4h4V7H7z M5,13H3.5C2.7,13,2,13.7,2,14.5
	S2.7,16,3.5,16S5,15.3,5,14.5V13z M13,13v1.5c0,0.8,0.7,1.5,1.5,1.5s1.5-0.7,1.5-1.5S15.3,13,14.5,13H13z M13,5h1.5
	C15.3,5,16,4.3,16,3.5S15.3,2,14.5,2S13,2.7,13,3.5V5z"/>
</svg>
