<?xml version="1.0" encoding="utf-8"?>
<!-- Generator: Adobe Illustrator 27.4.0, SVG Export Plug-In . SVG Version: 6.00 Build 0)  -->
<svg version="1.1" id="Layer_1" xmlns="http://www.w3.org/2000/svg" xmlns:xlink="http://www.w3.org/1999/xlink" x="0px" y="0px"
	 viewBox="0 0 16 20" style="enable-background:new 0 0 16 20;" xml:space="preserve">
<style type="text/css">
	.st0{fill-rule:evenodd;clip-rule:evenodd;fill:#FFFFFF;}
</style>
<path class="st0" d="M0,1.8C0,0.8,0.8,0,1.8,0h12.5c1,0,1.8,0.8,1.8,1.8v16.5c0,1-0.8,1.8-1.8,1.8H1.8c-1,0-1.8-0.8-1.8-1.8V1.8z
	 M4.8,4C4.3,4,4,4.3,4,4.8s0.3,0.8,0.8,0.8h6.5c0.4,0,0.8-0.3,0.8-0.8S11.7,4,11.2,4H4.8z M4.8,8C4.3,8,4,8.3,4,8.8s0.3,0.8,0.8,0.8
	h6.5c0.4,0,0.8-0.3,0.8-0.8S11.7,8,11.2,8H4.8z M4.8,12C4.3,12,4,12.3,4,12.8s0.3,0.8,0.8,0.8h2.5c0.4,0,0.8-0.3,0.8-0.8
	S7.7,12,7.2,12H4.8z"/>
</svg>
