<svg width="16" height="20" viewBox="0 0 16 20" fill="none" xmlns="http://www.w3.org/2000/svg">
	<path fill-rule="evenodd" clip-rule="evenodd" d="M8 0H2C0.89543 0 0 0.895432 0 2V18C0 19.1046 0.895431 20 2 20H14C15.1046 20 16 19.1046 16 18V8H10C8.89543 8 8 7.10457 8 6V0ZM4 12C4 11.4477 4.44772 11 5 11H8C8.55228 11 9 11.4477 9 12C9 12.5523 8.55228 13 8 13H5C4.44772 13 4 12.5523 4 12ZM5 15C4.44772 15 4 15.4477 4 16C4 16.5523 4.44772 17 5 17H11.5C12.0523 17 12.5 16.5523 12.5 16C12.5 15.4477 12.0523 15 11.5 15H5Z" fill="black"/>
	<path d="M15.4142 6L10 0.585787V6H15.4142Z" fill="black"/>
</svg>
