<svg width="16" height="20" viewBox="0 0 16 20" fill="none" xmlns="http://www.w3.org/2000/svg">
	<path fill-rule="evenodd" clip-rule="evenodd" d="M0 1.75C0 0.783503 0.783501 0 1.75 0H14.25C15.2165 0 16 0.783502 16 1.75V18.25C16 19.2165 15.2165 20 14.25 20H1.75C0.783501 20 0 19.2165 0 18.25V1.75ZM4.75 4C4.33579 4 4 4.33579 4 4.75C4 5.16421 4.33579 5.5 4.75 5.5H11.25C11.6642 5.5 12 5.16421 12 4.75C12 4.33579 11.6642 4 11.25 4H4.75ZM4.75 8C4.33579 8 4 8.33579 4 8.75C4 9.16421 4.33579 9.5 4.75 9.5H11.25C11.6642 9.5 12 9.16421 12 8.75C12 8.33579 11.6642 8 11.25 8H4.75ZM4.75 12C4.33579 12 4 12.3358 4 12.75C4 13.1642 4.33579 13.5 4.75 13.5H7.25C7.66421 13.5 8 13.1642 8 12.75C8 12.3358 7.66421 12 7.25 12H4.75Z" fill="black"/>
</svg>
