<?xml version="1.0" encoding="utf-8"?>
<!-- Generator: Adobe Illustrator 27.4.0, SVG Export Plug-In . SVG Version: 6.00 Build 0)  -->
<svg version="1.1" id="Layer_1" xmlns="http://www.w3.org/2000/svg" xmlns:xlink="http://www.w3.org/1999/xlink" x="0px" y="0px"
	 viewBox="0 0 21 17" style="enable-background:new 0 0 21 17;" xml:space="preserve">
<style type="text/css">
	.st0{fill-rule:evenodd;clip-rule:evenodd;fill:#FFFFFF;}
</style>
<path class="st0" d="M2,0C0.9,0,0,0.9,0,2v13c0,1.1,0.9,2,2,2h15.5c0.4,0,0.8-0.3,1-0.7l2.3-7.4C21.1,8,20.3,7,19.3,7H19V5
	c0-1.1-0.9-2-2-2h-6.5L9.1,0.9C8.8,0.3,8.1,0,7.5,0H2z M17,7V5h-7C9.7,5,9.4,4.8,9.2,4.6L7.5,2H2v13h0.8l2.1-6.6
	C5.1,7.6,5.9,7,6.7,7H17z"/>
</svg>
