<?xml version="1.0" encoding="utf-8"?>
<!-- Generator: Adobe Illustrator 27.4.0, SVG Export Plug-In . SVG Version: 6.00 Build 0)  -->
<svg version="1.1" id="uuid-431337c9-bbe9-4c1e-8e05-c88bb3971ac0"
	 xmlns="http://www.w3.org/2000/svg" xmlns:xlink="http://www.w3.org/1999/xlink" x="0px" y="0px" viewBox="0 0 1000 1000"
	 style="enable-background:new 0 0 1000 1000;" xml:space="preserve">
<style type="text/css">
	.st0{fill:#FFFFFF;}
</style>
<g>
	<path class="st0" d="M971,880.3c-1.3-1.4-2.6-2.7-4.2-3.9c7.3-10.5,4-28.1-11-29.9c0.4-6.2-2.9-12-8.4-14.6c-0.7-0.3-1.1-1-1.1-1.8
		c5.7-57.1-21.2-113.7-67.8-144.3c-0.7-0.4-1-1.3-0.7-2c21.8-60.3,84-177.2,91-193.1c12.6-28.4-3.4-51.3-21.6-48.1
		c-20.8,3.7-74.5,86.4-110.5,149c-4.2-7.6-5.3-8.1-1.4-18.9c19.2-64.7,123-308,26.2-274.3C825.8,311,798.8,459.5,788,527.8
		c-0.6,4-6.5,3.8-6.8-0.2c-6.3-77.4-24.1-228-61.1-228.3c-54.5-0.5-22,151.4-0.7,232.9c0.5,1.8-1.8,3.1-3.1,1.6
		c-44.4-50.2-101.5-98.6-114.1-34.7c0,0.1,0,0.3,0,0.4c-1,21.6,12.5,59.9,81.8,120.2c0.2,0.1,0.3,0.3,0.4,0.5
		c1.9,4,8.7,18,18.6,36.2c0.4,0.7,0.2,1.5-0.3,2.1c-26.4,29.6,2.4,71.6,39,63.9c0.7-0.1,1.4,0.1,1.9,0.7c7,10,13.8,18.9,20.4,26.5
		c0.7,0.8,0.5,2-0.4,2.6c-24.7,16.8-39,16.3-60.1,58.9c-0.7,1.5-2.8,1.3-3.3-0.2c-18.9-53.7-83-104-114.4-78.5
		c-19.6-13.6-41.7,13.4-32.4,30.6c-7.9,12.7-1,72.4,33.9,100.8c1.6,1.3,0.3,3.8-1.6,3.2c-54.4-17.9-54.5-87.2-45.8-134.2
		c17.1-88.4-1.9-181.4,19.8-268.8c14-70,131.8-175.3,104-225.9c-0.2-0.4-0.6-0.8-1.1-0.9c-51-18.6-129.7,214.3-163.2,152.7
		c-0.1-0.3-0.2-0.6-0.2-0.8c-7.7-100.8,46.1-197.1,43.8-297.7c0-0.1,0-0.2,0-0.3c-8.7-57.9-52.6,10-59.4,32.4
		c-32.8,73.9-40.8,156-65.6,234.5c-2.8,13.4-17.6,22.5-26.4,10.7c-22.7-34.2-5.4-72.5-4.8-119c1.6-129.8,2.6-153-7.6-228.1
		c-0.5-35.7-41.5-22.2-44.4,5.2c-13.6,72.4-16.2,117.3-19.4,173.9l-0.3,1.1c-2.6,8.8,0.1,200.7-34.7,144.8c-0.1-0.2-0.2-0.3-0.2-0.5
		c-23.3-78.2-39.4-157.5-69.5-233.8c-3.6-9.1-9.1-17.3-16.4-23.8c-67-58.8,13.6,252.5,28.7,303.2c11.7,31.6,3.5,76.4-38.1,74.3
		c-41.7-3-58.1-32-103.8-32.3c-70.6,0.5-79.1,88.7-0.7,92.2c0.1,0,0.2,0,0.3,0c189.2,45.2,113.1,273.2,427.4,377.7
		c78.7,30.4,172.3,67.5,253.1,87.5c0.2,0,0.4,0.1,0.5,0.2c36.8,25.6,104.7-11.5,135.5-51c0.6-0.8,1.8-0.9,2.6-0.2
		c8.6,7.6,23.4,8.9,30.9-0.6l-0.1-0.1c0.9-1,1.9-2.4,3.1-4.7c10.8,2.3,21.8-7.9,20.5-17.6c-0.1-0.9,0.3-1.7,1.2-2
		C967.4,911.5,983.6,893.6,971,880.3z M847.6,639.8c-5.3-12.6-4.7-26.9,1.3-39.3C871.9,552.9,937,458,950.3,458
		c16.6,0,20.4,16.3-78.6,200.5c-3,5.6-11,5.8-14.2,0.4C853.9,653,850.3,646.4,847.6,639.8z M868,310.1
		c49.3-8.4,10.8,96.6-40.5,246.5c-3,8.8-12.4,13.5-21.3,10.9c-5.7-1.7-10.5-2.8-9.9-5.9C800.7,538.5,838.6,314.8,868,310.1z
		 M712.8,695.3c2.7-2.1,4-4.5,4.9-7.1c0.5-1.5,2.5-1.6,3.2-0.3c3.3,5.6,6.7,11,10,16.2c0.8,1.2-0.1,2.8-1.6,2.8
		c-6.9-0.1-13.2-2.5-17.1-9.1C711.8,696.9,712.1,695.9,712.8,695.3z M766.5,975.8c-29.2-24.4-1.3-156.2-30.9-116.8
		c4.5,116.6-46.7,68.2-106.8,19.2c-34.6-25.7-63.1-54.9-62.5-93.4c0-1.3,1.5-2.3,2.7-1.6c17.6,9.7,38.3,30.3,49.1,18.5
		c0.2-0.2,0.3-0.4,0.5-0.7c1.5-3.6,0-7.9-3.6-9.8c-6.2-3.7-45.4-20.8-47.1-34.6c-1.6-3.1-4.5-17.2,11.3-10.8
		c13.1,5.3,33.4,25.2,37.4,30.9c2.2,3.1,6.4,4.2,9.7,2.6c0.3-0.1,0.5-0.3,0.7-0.5c10.4-10.9-6-23-17-33.1c-1.2-1.1-0.4-3.3,1.3-3.1
		c79.4,6.1,77.2,144,98.8,105c4.6-45.9,31.9-63.5,39.7-67.7c0.4-0.2,0.8-0.2,1.2-0.1c61.5,13.2,40.8,78.3,59.9,93.4
		c0.5,0.4,1.3,0.5,1.9,0.2c24-10.5-13.1-93-40-104.3c-1.5-0.6-1.4-2.7,0.1-3.3c33.2-13-10.2-32.3-20-57.2
		c-5.5-8.3-18.6-31.2-30.7-52.6c-14.9-26.4-33.5-50.5-54.8-72c-31.2-31.4-70.8-80.5-37.5-100.1c8.4-5,70.2,44.7,110.6,104.9
		c0.1,0.1,0.1,0.2,0.2,0.3c24.8,58.8,75.4,65.3,13.7-7.8c-0.1-0.2-0.3-0.4-0.3-0.6c-105-287.4-3.7-392.2,20.3-9.9
		c0.3,4.1,4.2,7.4,8.3,7.1c52-8.4,37.7,49.1,55.2,79.7c37.5,65.4,97.4,69,93.7,164.9c-0.1,1.5-1.8,2.3-2.9,1.4
		c-13.4-10.5-29.8,2.8-36.3,17.1c-0.3,0.6-0.9,1-1.6,1c-18.8-0.3-33.1,22.3-19.5,36.5c0.7,0.7,0.7,1.8,0,2.5
		c-10.8,11.2-7.1,33.4,8.4,38.2c0.7,0.2,1.1,0.8,1.2,1.5c0.4,2.9,1.7,5.6,3.8,7.8c0.6,0.7,0.8,1.7,0.2,2.4
		C860.5,958.7,798.8,1006.4,766.5,975.8z M947.7,901.3c-12.5-5.2-12.1,10.8-9.6,17.8c-3.1,1.9-6.4-1.4-9.8-1.4
		c-10.7-0.4-6.6,21.7-19.3,10.4c0.9-5.2-5.1-10.3-10.5-10.8c-0.9-0.1-1.7-1-1.6-1.9c0.8-13.9-24.4-7.1-14.2-23.9
		c26.3-14.2-9-21,1-31.4c5.7-5.5,16.9,1.7,20.2-7.1c26.1-50.3,10.9,24,36.3-5.6c-9.9,14.5,1,19.9,13.9,14.7c2.9,2.3-0.7,7.6-3.4,8.6
		C929.9,885.8,981.5,888.3,947.7,901.3z"/>
</g>
</svg>
