<svg width="18" height="18" viewBox="0 0 18 18" fill="none" xmlns="http://www.w3.org/2000/svg"><path d="M5 1V4C5 4.55228 5.44772 5 6 5H12C12.5523 5 13 4.55228 13 4V1M17 4.82843V15C17 16.1046 16.1046 17 15 17H3C1.89543 17 1 16.1046 1 15V3C1 1.89543 1.89543 1 3 1H13.1716C13.702 1 14.2107 1.21071 14.5858 1.58579L16.4142 3.41421C16.7893 3.78929 17 4.29799 17 4.82843ZM5 11V16C5 16.5523 5.44772 17 6 17H12C12.5523 17 13 16.5523 13 16V11C13 10.4477 12.5523 10 12 10H6C5.44772 10 5 10.4477 5 11Z" stroke="black" stroke-width="2" stroke-linecap="round" stroke-linejoin="round"/></svg>
