<?xml version="1.0" encoding="utf-8"?>
<!-- Generator: Adobe Illustrator 27.4.0, SVG Export Plug-In . SVG Version: 6.00 Build 0)  -->
<svg version="1.1" id="Layer_1" xmlns="http://www.w3.org/2000/svg" xmlns:xlink="http://www.w3.org/1999/xlink" x="0px" y="0px"
	 viewBox="0 0 18 18" style="enable-background:new 0 0 18 18;" xml:space="preserve">
<style type="text/css">
	.st0{fill:none;stroke:#FFFFFF;stroke-width:2;stroke-linecap:round;stroke-linejoin:round;}
</style>
<path class="st0" d="M5,1v3c0,0.6,0.4,1,1,1h6c0.6,0,1-0.4,1-1V1 M17,4.8V15c0,1.1-0.9,2-2,2H3c-1.1,0-2-0.9-2-2V3c0-1.1,0.9-2,2-2
	h10.2c0.5,0,1,0.2,1.4,0.6l1.8,1.8C16.8,3.8,17,4.3,17,4.8z M5,11v5c0,0.6,0.4,1,1,1h6c0.6,0,1-0.4,1-1v-5c0-0.6-0.4-1-1-1H6
	C5.4,10,5,10.4,5,11z"/>
</svg>
